<mxfile host="app.diagrams.net" agent="Mozilla/5.0 (Windows NT 10.0; Win64; x64) AppleWebKit/537.36 (KHTML, like Gecko) Chrome/127.0.0.0 Safari/537.36" version="24.7.6">
  <diagram name="Page-1" id="4SbSMfcBL5sQXceOl4UP">
    <mxGraphModel dx="1199" dy="653" grid="1" gridSize="10" guides="1" tooltips="1" connect="1" arrows="1" fold="1" page="1" pageScale="1" pageWidth="850" pageHeight="850" math="0" shadow="0">
      <root>
        <mxCell id="0" />
        <mxCell id="1" parent="0" />
        <mxCell id="cJDe17dJXL81AlbvWn2m-1" value="" style="shape=cylinder3;whiteSpace=wrap;html=1;boundedLbl=1;backgroundOutline=1;size=15;" vertex="1" parent="1">
          <mxGeometry x="80" y="200" width="200" height="330" as="geometry" />
        </mxCell>
        <mxCell id="cJDe17dJXL81AlbvWn2m-2" value="Dut-B" style="text;html=1;align=center;verticalAlign=middle;whiteSpace=wrap;rounded=0;" vertex="1" parent="1">
          <mxGeometry x="150" y="200" width="60" height="30" as="geometry" />
        </mxCell>
        <mxCell id="cJDe17dJXL81AlbvWn2m-3" value="" style="shape=cylinder3;whiteSpace=wrap;html=1;boundedLbl=1;backgroundOutline=1;size=15;" vertex="1" parent="1">
          <mxGeometry x="560" y="200" width="200" height="330" as="geometry" />
        </mxCell>
        <mxCell id="cJDe17dJXL81AlbvWn2m-4" value="Dut-C" style="text;html=1;align=center;verticalAlign=middle;whiteSpace=wrap;rounded=0;" vertex="1" parent="1">
          <mxGeometry x="630" y="200" width="60" height="30" as="geometry" />
        </mxCell>
        <mxCell id="cJDe17dJXL81AlbvWn2m-5" value="sys: 10.20.1.2" style="text;html=1;align=center;verticalAlign=middle;whiteSpace=wrap;rounded=0;" vertex="1" parent="1">
          <mxGeometry x="135" y="240" width="90" height="30" as="geometry" />
        </mxCell>
        <mxCell id="cJDe17dJXL81AlbvWn2m-7" value="sys: 10.20.1.3" style="text;html=1;align=center;verticalAlign=middle;whiteSpace=wrap;rounded=0;" vertex="1" parent="1">
          <mxGeometry x="615" y="240" width="90" height="30" as="geometry" />
        </mxCell>
        <mxCell id="cJDe17dJXL81AlbvWn2m-30" value="4/9" style="rounded=0;whiteSpace=wrap;html=1;" vertex="1" parent="1">
          <mxGeometry x="280" y="440" width="40" height="20" as="geometry" />
        </mxCell>
        <mxCell id="cJDe17dJXL81AlbvWn2m-31" value="LAG" style="ellipse;whiteSpace=wrap;html=1;" vertex="1" parent="1">
          <mxGeometry x="240" y="280" width="30" height="100" as="geometry" />
        </mxCell>
        <mxCell id="cJDe17dJXL81AlbvWn2m-32" value="" style="group" vertex="1" connectable="0" parent="1">
          <mxGeometry x="280" y="280" width="40" height="100" as="geometry" />
        </mxCell>
        <mxCell id="cJDe17dJXL81AlbvWn2m-25" value="1/4" style="rounded=0;whiteSpace=wrap;html=1;" vertex="1" parent="cJDe17dJXL81AlbvWn2m-32">
          <mxGeometry width="40" height="20" as="geometry" />
        </mxCell>
        <mxCell id="cJDe17dJXL81AlbvWn2m-28" value="1/5" style="rounded=0;whiteSpace=wrap;html=1;" vertex="1" parent="cJDe17dJXL81AlbvWn2m-32">
          <mxGeometry y="40" width="40" height="20" as="geometry" />
        </mxCell>
        <mxCell id="cJDe17dJXL81AlbvWn2m-29" value="1/6" style="rounded=0;whiteSpace=wrap;html=1;" vertex="1" parent="cJDe17dJXL81AlbvWn2m-32">
          <mxGeometry y="80" width="40" height="20" as="geometry" />
        </mxCell>
        <mxCell id="cJDe17dJXL81AlbvWn2m-33" value="" style="group" vertex="1" connectable="0" parent="1">
          <mxGeometry x="520" y="280" width="40" height="100" as="geometry" />
        </mxCell>
        <mxCell id="cJDe17dJXL81AlbvWn2m-34" value="1/4" style="rounded=0;whiteSpace=wrap;html=1;" vertex="1" parent="cJDe17dJXL81AlbvWn2m-33">
          <mxGeometry width="40" height="20" as="geometry" />
        </mxCell>
        <mxCell id="cJDe17dJXL81AlbvWn2m-35" value="1/5" style="rounded=0;whiteSpace=wrap;html=1;" vertex="1" parent="cJDe17dJXL81AlbvWn2m-33">
          <mxGeometry y="40" width="40" height="20" as="geometry" />
        </mxCell>
        <mxCell id="cJDe17dJXL81AlbvWn2m-36" value="1/6" style="rounded=0;whiteSpace=wrap;html=1;" vertex="1" parent="cJDe17dJXL81AlbvWn2m-33">
          <mxGeometry y="80" width="40" height="20" as="geometry" />
        </mxCell>
        <mxCell id="cJDe17dJXL81AlbvWn2m-37" value="LAG" style="ellipse;whiteSpace=wrap;html=1;" vertex="1" parent="1">
          <mxGeometry x="570" y="280" width="30" height="100" as="geometry" />
        </mxCell>
        <mxCell id="cJDe17dJXL81AlbvWn2m-38" value="1/4: forwarding-complex 0&lt;div&gt;1/5:&amp;nbsp;forwarding-complex 0&lt;/div&gt;&lt;div&gt;1/6:&amp;nbsp;forwarding-complex 0&lt;br&gt;&lt;/div&gt;&lt;div&gt;4/9:&amp;nbsp;forwarding-complex 0&lt;br&gt;&lt;/div&gt;" style="rounded=0;whiteSpace=wrap;html=1;align=left;" vertex="1" parent="1">
          <mxGeometry x="105" y="100" width="150" height="60" as="geometry" />
        </mxCell>
        <mxCell id="cJDe17dJXL81AlbvWn2m-39" value="1/4: forwarding-complex 0&lt;div&gt;1/5:&amp;nbsp;forwarding-complex 0&lt;/div&gt;&lt;div&gt;1/6:&amp;nbsp;forwarding-complex 0&lt;br&gt;&lt;/div&gt;&lt;div&gt;4/9:&amp;nbsp;forwarding-complex 0&lt;br&gt;&lt;/div&gt;" style="rounded=0;whiteSpace=wrap;html=1;align=left;" vertex="1" parent="1">
          <mxGeometry x="585" y="100" width="150" height="60" as="geometry" />
        </mxCell>
        <mxCell id="cJDe17dJXL81AlbvWn2m-40" value="4/9" style="rounded=0;whiteSpace=wrap;html=1;" vertex="1" parent="1">
          <mxGeometry x="520" y="440" width="40" height="20" as="geometry" />
        </mxCell>
        <mxCell id="cJDe17dJXL81AlbvWn2m-42" value="" style="endArrow=none;html=1;rounded=0;entryX=0;entryY=0.5;entryDx=0;entryDy=0;exitX=1;exitY=0.5;exitDx=0;exitDy=0;" edge="1" parent="1" source="cJDe17dJXL81AlbvWn2m-25" target="cJDe17dJXL81AlbvWn2m-34">
          <mxGeometry width="50" height="50" relative="1" as="geometry">
            <mxPoint x="570" y="360" as="sourcePoint" />
            <mxPoint x="620" y="310" as="targetPoint" />
          </mxGeometry>
        </mxCell>
        <mxCell id="cJDe17dJXL81AlbvWn2m-43" value="" style="endArrow=none;html=1;rounded=0;entryX=0;entryY=0.5;entryDx=0;entryDy=0;exitX=1;exitY=0.5;exitDx=0;exitDy=0;" edge="1" parent="1">
          <mxGeometry width="50" height="50" relative="1" as="geometry">
            <mxPoint x="320" y="329.5" as="sourcePoint" />
            <mxPoint x="520" y="329.5" as="targetPoint" />
          </mxGeometry>
        </mxCell>
        <mxCell id="cJDe17dJXL81AlbvWn2m-44" value="" style="endArrow=none;html=1;rounded=0;entryX=0;entryY=0.5;entryDx=0;entryDy=0;exitX=1;exitY=0.5;exitDx=0;exitDy=0;" edge="1" parent="1">
          <mxGeometry width="50" height="50" relative="1" as="geometry">
            <mxPoint x="320" y="370" as="sourcePoint" />
            <mxPoint x="520" y="370" as="targetPoint" />
          </mxGeometry>
        </mxCell>
        <mxCell id="cJDe17dJXL81AlbvWn2m-45" value="" style="endArrow=none;html=1;rounded=0;entryX=0;entryY=0.5;entryDx=0;entryDy=0;exitX=1;exitY=0.5;exitDx=0;exitDy=0;" edge="1" parent="1">
          <mxGeometry width="50" height="50" relative="1" as="geometry">
            <mxPoint x="320" y="449.5" as="sourcePoint" />
            <mxPoint x="520" y="449.5" as="targetPoint" />
          </mxGeometry>
        </mxCell>
      </root>
    </mxGraphModel>
  </diagram>
</mxfile>
